# xmcd
#
# Track frame offsets:
#	150
#	13674
#	25309
#	39820
#	49614
#	63082
#	80678
#	94285
#	117095
#	131293
#
# Disc length: 1978 seconds
#
# Revision: 0
# Processed by: cddbd v1.5.2PL0 Copyright (c) Steve Scherf et al.
# Submitted via: dBpowerAMP V4.0
#
DISCID=7207b80a
DTITLE=Rick Challinor Band - Hard Times
DYEAR=1900
DGENRE=Blues
TTITLE0=It Hurts Me Too
TTITLE1=I Had A Notion
TTITLE2=Little Wing
TTITLE3=Kind Hearted Woman
TTITLE4=Buckets Of Rain
TTITLE5=Travelling Riverside Blues
TTITLE6=Mornin' Boogie
TTITLE7=Love You Baby
TTITLE8=I Can't Be Satiesfied
TTITLE9=Hard Times
EXTD=
EXTT0=
EXTT1=
EXTT2=
EXTT3=
EXTT4=
EXTT5=
EXTT6=
EXTT7=
EXTT8=
EXTT9=
PLAYORDER=
